<svg xmlns="http://www.w3.org/2000/svg" fill="none" viewBox="0 0 24 24" stroke-width="1" stroke="currentColor" class="size-6">
<path d="M14.857 17.082C16.7202 16.8614 18.5509 16.4217 20.311 15.772C18.8204 14.1208 17.9967 11.9745 18 9.75V9C18 7.4087 17.3679 5.88258 16.2426 4.75736C15.1174 3.63214 13.5913 3 12 3C10.4087 3 8.88258 3.63214 7.75736 4.75736C6.63214 5.88258 6 7.4087 6 9V9.75C6.00302 11.9746 5.17899 14.121 3.688 15.772C5.421 16.412 7.248 16.857 9.143 17.082M14.857 17.082C12.959 17.3071 11.041 17.3071 9.143 17.082M14.857 17.082C15.0011 17.5319 15.0369 18.0094 14.9616 18.4757C14.8862 18.942 14.7018 19.384 14.4234 19.7656C14.1449 20.1472 13.7803 20.4576 13.3592 20.6716C12.9381 20.8856 12.4724 20.9972 12 20.9972C11.5276 20.9972 11.0619 20.8856 10.6408 20.6716C10.2197 20.4576 9.85507 20.1472 9.57662 19.7656C9.29817 19.384 9.11376 18.942 9.03841 18.4757C8.96306 18.0094 8.9989 17.5319 9.143 17.082M3.124 7.5C3.40597 5.82497 4.1578 4.26444 5.292 3M18.708 3C19.8422 4.26444 20.594 5.82497 20.876 7.5" stroke="black" stroke-linecap="round" stroke-linejoin="round"/>
<path d="M12 8.33333V13.6667M10.6667 12.4142L11.0573 12.7071C11.5778 13.0978 12.4218 13.0978 12.9427 12.7071C13.4636 12.3164 13.4636 11.6836 12.9427 11.2929C12.6827 11.0973 12.3413 11 12 11C11.6778 11 11.3556 10.9022 11.1098 10.7071C10.6182 10.3164 10.6182 9.68356 11.1098 9.29289C11.6013 8.90222 12.3987 8.90222 12.8902 9.29289L13.0747 9.43956M16 11C16 11.5253 15.8965 12.0454 15.6955 12.5307C15.4945 13.016 15.1999 13.457 14.8284 13.8284C14.457 14.1999 14.016 14.4945 13.5307 14.6955C13.0454 14.8965 12.5253 15 12 15C11.4747 15 10.9546 14.8965 10.4693 14.6955C9.98396 14.4945 9.54301 14.1999 9.17157 13.8284C8.80014 13.457 8.5055 13.016 8.30448 12.5307C8.10346 12.0454 8 11.5253 8 11C8 9.93913 8.42143 8.92172 9.17157 8.17157C9.92172 7.42143 10.9391 7 12 7C13.0609 7 14.0783 7.42143 14.8284 8.17157C15.5786 8.92172 16 9.93913 16 11Z" stroke="black" stroke-linecap="round" stroke-linejoin="round"/>
</svg>
